<?xml version="1.0" standalone="no"?><!-- Generator: Gravit.io --><svg xmlns="http://www.w3.org/2000/svg" xmlns:xlink="http://www.w3.org/1999/xlink" style="isolation:isolate" viewBox="0 0 2193.4 1812.3" width="2193.4" height="1812.3"><defs><clipPath id="_clipPath_LuRcQx4iZXexMyeHXRApGbpJSCzpOQhJ"><rect width="2193.4" height="1812.3"/></clipPath></defs><g clip-path="url(#_clipPath_LuRcQx4iZXexMyeHXRApGbpJSCzpOQhJ)"><path d=" M 1578.994 1786.148 C 1557.773 1802.988 1535.737 1795.095 1530.025 1768.619 L 1406.671 1196.467 C 1400.987 1170.016 1391.649 1126.703 1385.936 1100.225 L 1262.582 528.087 C 1256.902 501.622 1272.288 470.58 1296.831 459.094 L 1350.181 430.378 C 1374.724 418.893 1414.864 400.151 1439.378 388.666 L 1488.948 373.553 C 1513.462 362.067 1546.682 370.532 1562.76 392.339 L 1844.016 774.291 C 1860.068 796.103 1886.332 831.783 1902.414 853.607 L 2183.698 1235.545 C 2199.753 1257.371 2195.52 1288.957 2174.301 1305.793 L 1917.136 1508.551 C 1895.887 1525.387 1861.188 1552.953 1839.966 1569.762 L 1578.994 1786.148 Z " fill="rgb(255,255,255)"/><path d=" M 1165.555 374.036 C 1165.555 374.036 1170.18 277.885 1150.08 181.766 C 1130.009 85.677 1087.114 0.045 988.066 0.045 C 888.984 0.045 835.648 54.513 801.872 135.096 C 768.106 215.664 743.034 396.132 790.49 396.132 C 808.156 396.132 819.101 388.516 825.628 380.867 C 832.131 373.249 834.245 365.572 834.245 365.572 C 834.245 320.262 854.755 86.75 978.335 86.75 C 1093.256 86.75 1090.262 396.132 1090.262 396.132 C 1090.262 396.132 1093.816 400.606 1100.086 405.079 C 1106.357 409.566 1115.351 414.04 1126.292 414.04 C 1143.336 414.04 1153.161 404.051 1158.691 393.984 C 1164.258 383.981 1165.555 374.036 1165.555 374.036 Z " fill="rgb(255,255,255)"/><path d=" M 1225.707 316.546 C 1203.733 316.546 1195.21 318.963 1195.422 328.138 C 1195.633 337.31 1195.994 347.317 1196.235 350.369 C 1196.448 353.451 1204.638 361.009 1225.769 361.009 C 1246.924 361.009 1378.802 368.414 1422.599 368.414 C 1466.398 368.414 1488.341 368.291 1488.341 348.283 C 1488.341 338.218 1382.069 328.137 1357.403 328.137 C 1332.738 328.138 1247.68 316.546 1225.707 316.546 Z " fill="rgb(255,255,255)"/><path d=" M 1010.586 292.273 C 1035.447 293.254 1056.501 301.583 1057.394 310.742 C 1058.288 319.901 1056.259 329.92 1052.917 332.988 C 1049.578 336.056 1028.208 337.615 1005.447 336.466 C 982.703 335.317 947.794 333.411 927.859 332.278 C 907.908 331.114 885.708 327.789 878.499 324.918 C 871.273 322.015 868.676 312.297 872.754 303.276 C 876.82 294.268 899.32 287.71 922.764 288.706 C 946.204 289.673 985.742 291.277 1010.586 292.273 Z " fill="rgb(255,255,255)"/><path d=" M 697.896 287.845 C 689.46 287.845 583.564 325.478 539.206 336.873 C 494.863 348.283 440.776 378.509 440.776 388.574 C 440.776 415.264 516.896 389.634 557.827 378.631 C 598.755 367.643 689.462 331.235 697.896 330.524 C 706.329 329.8 727.728 323.739 732.882 318.058 C 743.174 306.752 738.032 303.625 738.032 298.016 C 738.035 292.426 706.329 287.845 697.896 287.845 Z " fill="rgb(255,255,255)"/><path d=" M 800.121 929.382 C 813.872 941.2 832.553 947.339 847.955 947.339 C 863.413 947.339 880.613 943.136 895.393 934.31 C 910.205 925.47 922.596 911.927 928.369 893.323 C 934.176 874.616 928.068 855.33 915.191 840.684 C 902.343 826.071 882.712 816.111 861.478 816.111 C 843.13 816.111 825.285 819.933 810.97 829.516 C 796.673 839.082 785.882 854.376 781.711 877.213 C 777.541 900.035 786.369 917.582 800.121 929.382 Z " fill="rgb(255,255,255)"/><path d=" M 1486.712 1772.791 L 1364.567 1204.23 C 1358.915 1177.753 1349.606 1134.437 1343.893 1107.96 L 1221.779 539.342 C 1216.062 512.896 1189.375 489.137 1162.415 486.596 L 850.824 457.248 C 823.861 454.707 779.749 450.519 752.785 447.999 L 441.214 418.647 C 414.235 416.124 384.537 434.819 375.227 460.27 L 205.991 921.675 C 196.697 947.095 181.449 988.749 172.095 1014.138 L 2.867 1475.576 C -6.442 1500.998 7.679 1526.115 34.232 1531.371 L 693.18 1661.801 C 719.779 1667.059 763.243 1675.672 789.784 1680.932 L 1448.747 1811.36 C 1475.316 1816.621 1492.394 1799.267 1486.712 1772.791 Z  M 712.854 839.898 C 735.708 747.573 783.011 696.127 824.574 667.744 C 866.151 639.331 902.014 634.043 902.014 634.043 C 902.014 634.043 910.504 638.063 921.311 646.994 C 932.086 655.91 945.117 669.741 954.108 689.387 C 915.509 696.128 888.502 712.511 871.151 727.23 C 853.773 741.953 846.036 754.98 846.036 754.98 C 877.226 749.175 922.598 760.45 957.189 787.139 C 991.723 813.829 1015.542 855.965 1003.634 911.928 C 991.753 967.893 947.349 995.067 905.939 1008.276 C 864.517 1021.456 826.101 1020.671 826.101 1020.671 C 826.101 1020.671 786.369 1021.638 752.361 999.513 C 718.326 977.414 690.033 932.224 712.854 839.898 Z  M 482.049 931.136 L 527.462 797.553 C 530.361 789.012 535.108 774.988 538.028 766.463 L 583.426 632.848 C 586.326 624.309 596.058 618.021 605.07 618.883 L 619.337 620.229 C 628.325 621.107 643.005 622.51 652.01 623.373 L 666.306 624.734 C 675.286 625.593 680.878 633.5 678.701 642.263 L 644.428 781.187 C 642.281 789.951 638.728 804.276 636.568 813.042 L 602.305 951.993 C 600.132 960.725 591.09 966.62 582.203 965.081 L 553.729 960.126 C 544.846 958.554 530.291 956.011 521.403 954.472 L 492.959 949.515 C 484.042 947.972 479.147 939.689 482.049 931.136 Z  M 375.289 1132.898 L 333.321 1247.787 C 330.233 1256.252 325.174 1270.158 322.057 1278.617 L 280.121 1393.51 C 277.006 1401.975 267.273 1407.322 258.46 1405.42 L 240.478 1401.43 C 231.652 1399.465 217.218 1396.262 208.41 1394.328 L 190.426 1390.367 C 181.614 1388.402 176.974 1379.91 180.163 1371.443 L 222.679 1257.701 C 225.853 1249.24 231.021 1235.428 234.18 1226.961 L 276.753 1113.252 C 279.894 1104.76 275.27 1096.295 266.442 1094.391 L 264.447 1093.938 C 255.625 1092.036 241.174 1088.918 232.378 1086.985 L 230.352 1086.534 C 221.544 1084.63 216.935 1076.165 220.169 1067.733 L 223.736 1058.391 C 226.955 1049.957 232.199 1036.207 235.417 1027.743 L 238.999 1018.401 C 242.202 1009.969 252.088 1004.499 260.942 1006.253 L 339.682 1021.79 C 348.536 1023.571 363.045 1026.44 371.903 1028.196 L 450.658 1043.794 C 459.527 1045.546 464.184 1053.86 461.01 1062.351 L 457.565 1071.513 C 454.405 1079.974 449.241 1093.788 446.048 1102.251 L 442.633 1111.44 C 439.477 1119.901 430.588 1125.766 422.896 1124.465 C 415.189 1123.194 402.616 1121.111 394.907 1119.779 C 387.228 1118.541 378.373 1124.433 375.289 1132.898 Z  M 583.459 1431.654 C 548.983 1457.498 512.819 1464.873 485.13 1458.738 C 457.442 1452.634 426.766 1427.875 407.934 1387.738 C 389.102 1347.627 382.196 1292.16 402.161 1224.603 C 422.095 1157.048 452.43 1113.583 486.403 1087.861 C 520.38 1062.107 557.918 1054.068 592.346 1057.332 C 616.147 1059.6 646.423 1084.988 665.552 1126.732 C 684.656 1168.445 692.577 1226.509 671.705 1294.064 C 650.767 1361.623 617.975 1405.871 583.459 1431.654 Z  M 947.654 1541.466 C 946.203 1550.353 937.771 1556.036 928.959 1554.101 L 917.809 1551.622 C 908.995 1549.718 894.577 1546.513 885.783 1544.552 L 874.63 1542.103 C 865.818 1540.14 855.8 1531.705 852.322 1523.392 L 824.692 1456.502 C 821.248 1448.188 815.594 1434.523 812.149 1426.186 L 784.463 1359.325 C 781.048 1350.952 776.647 1351.346 774.729 1360.175 L 763.363 1412.374 C 761.459 1421.198 758.346 1435.645 756.416 1444.476 L 745.077 1496.642 C 743.177 1505.47 734.38 1511.124 725.582 1509.16 L 708.837 1505.471 C 700.012 1503.504 685.625 1500.334 676.801 1498.369 L 660.086 1494.681 C 651.287 1492.745 645.862 1483.982 648.052 1475.216 L 688.829 1312.536 C 691.034 1303.768 694.6 1289.44 696.838 1280.677 L 737.613 1117.966 C 739.801 1109.232 748.826 1103.46 757.68 1105.243 L 763.877 1106.452 C 772.719 1108.206 787.197 1111.077 796.036 1112.829 L 802.235 1114.069 C 811.09 1115.821 820.852 1124.165 823.967 1132.63 L 847.617 1197.253 C 850.732 1205.745 855.795 1219.618 858.91 1228.083 L 882.589 1292.708 C 885.705 1301.169 889.681 1300.868 891.402 1291.983 L 901.71 1239.659 C 903.431 1230.804 906.303 1216.323 908.024 1207.436 L 918.362 1155.118 C 920.116 1146.259 928.776 1140.337 937.66 1141.97 L 949.875 1144.204 C 958.76 1145.808 973.313 1148.468 982.155 1150.099 L 994.41 1152.279 C 1003.255 1153.943 1009.346 1162.552 1007.891 1171.468 L 980.385 1340.255 C 978.967 1349.171 976.561 1363.739 975.114 1372.655 L 947.654 1541.466 Z  M 1245.596 1590.794 C 1216.096 1618.149 1166.617 1637.589 1084.064 1615.735 C 959.822 1582.813 1000.432 1427.333 1000.432 1427.333 L 1072.49 1458.312 C 1065.873 1561.898 1146.606 1536.751 1161.326 1527.046 C 1176.047 1517.314 1219.303 1449.638 1113.658 1391.847 C 1062.604 1363.949 1044.17 1328.339 1035.329 1301.558 C 1026.472 1274.781 1037.488 1242.953 1046.8 1216.234 C 1098.514 1144.504 1170.665 1141.363 1216.005 1177.058 C 1262.857 1204.712 1284.108 1263.204 1284.108 1263.204 L 1216.582 1292.796 C 1208.179 1279.284 1132.46 1203.595 1129.894 1278.616 C 1129.32 1295.304 1150.96 1318.819 1206.277 1355.182 C 1261.619 1391.514 1281.086 1435.278 1286.708 1469.922 C 1292.324 1504.591 1275.096 1563.441 1245.596 1590.794 Z " fill="rgb(255,255,255)"/><path d=" M 563.494 1145.865 C 547.184 1144.084 529.337 1148.467 513.214 1162.609 C 497.057 1176.755 482.652 1200.634 473.191 1237.754 C 463.763 1274.869 466.999 1305.369 475.929 1327.434 C 484.891 1349.471 499.461 1363.075 512.608 1366.457 C 525.726 1369.781 542.927 1365.73 559.279 1351.557 C 575.675 1337.381 591.258 1313.08 601.172 1275.93 C 611.118 1238.815 607.324 1206.926 598.257 1183.983 C 589.154 1161.039 574.781 1147.105 563.494 1145.865 Z " fill="rgb(255,255,255)"/></g></svg>