<svg class="app-brand__svg hidden md@block" xmlns="http://www.w3.org/2000/svg" viewBox="0 0 375 24" aria-label="Логотип театра «Сатирикон»" fill="white"><path d="M126.5 24h4.5V0h-4.5v24zm31.6 0h4.5V0h-4.5v24zm-24.8 0 22.6-18V0l-22.6 18v6zm79 0h4.5V0h-4.5v24zm31.7 0h4.5V0H244v24zm94.9 0h4.5V0h-4.5v24zm31.6-24v24h4.5V0h-4.5zM255.3 24h4.5V0h-4.5v24zm-36.2 0 22.6-18V0l-22.6 18v6zm-117.4 0h4.5V7.2h-4.5V24zM83.5 4.8h15.9V0H83.5v4.8zm18.1 0H122V0h-20.4v4.8zm244 9.6h22.6V9.6h-22.6v4.8zM49.7 19.2h22.6v-4.8H49.7v4.8zM52 0c-5 0-9 4.3-9 9.6V24h4.5V9.6c0-2.6 2-4.8 4.5-4.8V0zm22.5 24H79V12h-4.5v12zM27.1 0v4.8c2.5 0 4.5 2.2 4.5 4.8h4.5c0-5.3-4-9.6-9-9.6zM11.3 24h22.6v-4.8H11.3V24zM24.8 0H9C4 0 0 4.3 0 9.6v4.8C0 19.7 4 24 9 24v-4.8c-2.5 0-4.5-2.2-4.5-4.8V9.6c0-2.6 2-4.8 4.5-4.8h15.8V0zm144.6 24h4.5V4.8h20.3V0h-24.8v24zm131.1-9.6V9.6c0-2.6 2-4.8 4.5-4.8V0c-5 0-9 4.3-9 9.6v4.8c0 5.3 4 9.6 9 9.6h15.8v-4.8H305c-2.5 0-4.5-2.2-4.5-4.8zM323 0h-15.8v4.8H323c2.5 0 4.5 2.2 4.5 4.8v4.8c0 2.6-2 4.8-4.5 4.8V24c5 0 9-4.3 9-9.6V9.6c0-.7-.1-1.3-.2-1.9-.7-4.4-4.4-7.7-8.8-7.7zm-43.4 7.2h6.2l5.6-7.2h-6.2l-5.6 7.2zm0 9.6 5.6 7.2h6.2l-5.6-7.2h-6.2zm5-7.2H262v4.8h22.6V9.6zm-108.4 9.6h18.1v-4.8h-18.1v4.8zM196.5 0v4.8c2.5 0 4.5 2.2 4.5 4.8s-2 4.8-4.5 4.8v4.8c5 0 9-4.3 9-9.6s-4-9.6-9-9.6zM70 0H54.2v4.8H70c2.5 0 4.5 2.2 4.5 4.8H79c.1-5.3-4-9.6-9-9.6z"/></svg>