<svg xmlns="http://www.w3.org/2000/svg" viewBox="0 0 500 500"><ellipse cx="250" cy="352.11" rx="246.07" ry="142.07" style="fill:#fafafa"/><path d="m359.29 332.49 86-49.67a1.12 1.12 0 0 0 0-2.12l-113.6-65.61a4.11 4.11 0 0 0-3.68 0l-86 49.67a1.12 1.12 0 0 0 0 2.13l113.63 65.6a4 4 0 0 0 3.65 0ZM286.64 409.91a134.37 134.37 0 0 1 28.88 14.29c10.12 6.62 19.38 14.63 30.16 20.13 14 7.15 30.07 9.71 45.77 8.94 8.9-.44 18.57-2.37 24.24-9.24a10.14 10.14 0 0 0 2.62-6.17c0-3.35-2.32-6.22-4.75-8.52-13-12.27-31.06-17.29-48.49-21.21s-27.89-8.84-45-17.71c-7.33-3.8-14.55-7.88-21.94-11.46l-.18-.08a114.27 114.27 0 0 0-11.22-5.22 87.28 87.28 0 0 0-19.41-5 39.85 39.85 0 0 0-19.72 2.36 8.9 8.9 0 0 0-4.14 3 7.17 7.17 0 0 0-1 4.19 15 15 0 0 0 3.08 8.22 32.73 32.73 0 0 0 6.34 6.21c10.19 8 22.64 12.99 34.76 17.27ZM83.59 436.77 28.7 405.09c-1.63-.94-1.63-2.46 0-3.4l162.62-93.89a6.5 6.5 0 0 1 5.89 0l54.9 31.68c1.62.94 1.62 2.46 0 3.4L89.48 436.77a6.5 6.5 0 0 1-5.89 0Z" style="fill:#e0e0e0"/><path d="M437 281.2a1.42 1.42 0 0 0 .85-1.18v-1.82L337 221.12a4.49 4.49 0 0 0-4.1 0l-79.28 45.77L357.7 327Z" style="fill:#fee600"/><path d="M437 281.2a1.42 1.42 0 0 0 .85-1.18v-1.82L337 221.12a4.49 4.49 0 0 0-4.1 0l-79.28 45.77L357.7 327Z" style="fill:#fff;opacity:.2"/><path d="M437 279.43a1.25 1.25 0 0 0 0-2.37l-100-57.72a4.49 4.49 0 0 0-4.1 0l-79.28 45.77 104.08 60.07Z" style="fill:#fee600"/><path d="M437 279.43a1.25 1.25 0 0 0 0-2.37l-100-57.72a4.49 4.49 0 0 0-4.1 0l-79.28 45.77 104.08 60.07Z" style="opacity:.5"/><path d="m271.84 253.15 58.69-33.87a4.51 4.51 0 0 1 4.11 0l93.19 53.8 7.63-4.45v9l-.14.09c.26.56.05 1.17-.71 1.61l-67.22 38.79-104.11-60.03v-9.88Z" style="fill:#ebebeb"/><path d="M434.61 269.49a1.25 1.25 0 0 0 0-2.37l-100-57.72a4.58 4.58 0 0 0-4.11 0l-67.25 38.81 104.11 60.07Z" style="fill:#fafafa"/><path d="M367.39 308.28v9.88l-104.11-60.07v-9.88l104.11 60.07z" style="fill:#e6e6e6"/><path d="M366.31 304.43a2.83 2.83 0 0 0 .76.26 2.31 2.31 0 0 0 1.2 0 .91.91 0 0 0 .38-.14c.62-.33.55-.95-.16-1.35a2.71 2.71 0 0 0-1.07-.31 2.2 2.2 0 0 0-1.28.22.22.22 0 0 0-.12.09c-.47.33-.38.85.29 1.23Z" style="fill:#263238"/><path d="M356 312.15a5.34 5.34 0 0 0 1 3.42 3.67 3.67 0 0 0 2.94 1.4 5.7 5.7 0 0 0 2.85-.86 4.74 4.74 0 0 0 .52-.31l-1.16-.66c-2.8 1.56-5 .24-5-3a11.24 11.24 0 0 1 5.08-8.79c1.51-.88 2.89-.9 3.81-.19a2.72 2.72 0 0 1 1.05 1.52 2.31 2.31 0 0 0 1.2 0 4.24 4.24 0 0 0-.85-1.8 3.66 3.66 0 0 0-2.94-1.37 5.78 5.78 0 0 0-2.87.85 12.35 12.35 0 0 0-5.63 9.79Z" style="fill:#263238"/><path d="m358.89 302.82 78.91-38.56v1.29a2.25 2.25 0 0 1-1 1.77l-77.88 37.29Z" style="fill:#fee600"/><path d="m358.89 302.82 78.91-38.56v1.29a2.25 2.25 0 0 1-1 1.77l-77.88 37.29Z" style="fill:#fff;opacity:.2"/><path d="M437 265.43a1.25 1.25 0 0 0 0-2.37l-100-57.71a4.49 4.49 0 0 0-4.1 0l-79.28 38.06 104.08 60.07Z" style="fill:#fee600"/><path d="M437 265.43a1.25 1.25 0 0 0 0-2.37l-100-57.71a4.49 4.49 0 0 0-4.1 0l-79.28 38.06 104.08 60.07Z" style="opacity:.2"/><path d="m357.7 326.96-104.11-60.07v-23.51l104.11 60.11v23.47z" style="fill:#fee600"/><path d="M339.65 311.88a3.71 3.71 0 0 0 3-1.4 5.39 5.39 0 0 0 1-3.41 12.4 12.4 0 0 0-5.68-9.83 5.69 5.69 0 0 0-2.86-.85c-2.39 0-4 1.93-4 4.81a12.38 12.38 0 0 0 5.68 9.83 5.79 5.79 0 0 0 2.86.85Z" style="fill:#455a64"/><path d="M342.46 307.07c0 3.24-2.27 4.55-5.08 2.93a11.22 11.22 0 0 1-5.08-8.8c0-3.24 2.27-4.55 5.08-2.93a11.25 11.25 0 0 1 5.08 8.8ZM324 295.23V297c0 3.56-2.5 5-5.58 3.22l-52.27-30.17a12.35 12.35 0 0 1-5.58-9.67v-1.78c0-3.56 2.5-5 5.58-3.22l52.27 30.18a12.34 12.34 0 0 1 5.58 9.67Z" style="fill:#f5f5f5"/><path d="M358.93 326.25v-23.36l-1.23.6v23.47l1.23-.71z" style="fill:#fee600"/><path d="M358.93 326.25v-23.36l-1.23.6v23.47l1.23-.71z" style="fill:#fff;opacity:.2"/><path d="M254.44 238.33a1.86 1.86 0 0 0 .89 1.41l102.33 59a2 2 0 0 0 1.79 0l80.4-40.67v-1.79l-104.08-60.05-80.44 40.69a1.84 1.84 0 0 0-.89 1.41Z" style="fill:#fee600"/><path d="M439.85 256.32 359.46 297a1.76 1.76 0 0 1-.9.21 1.8 1.8 0 0 1-.91-.21l-102.32-59.06a.54.54 0 0 1 0-1l80.45-40.67Z" style="opacity:.5"/><path d="M439.85 256.32v1.79l-80.39 40.67a1.87 1.87 0 0 1-.91.2v-1.77a1.76 1.76 0 0 0 .9-.21Z" style="fill:#fff;opacity:.2"/><path d="m438.63 257.04-104.12-60.07v-23.52l104.12 60.35v23.24z" style="fill:#fee600"/><path d="m438.63 257.04-104.12-60.07v-23.52l104.12 60.35v23.24z" style="opacity:.7000000000000001"/><path d="M255.55 225.68a2.48 2.48 0 0 0-1.12 1.94v4.75a2.47 2.47 0 0 0 1.12 1.94l101.88 58.78a2.44 2.44 0 0 0 2.23 0l68.16-36.86v-7.34L323.74 188.8Z" style="fill:#ebebeb"/><path d="m323.74 188.8-68.19 36.88c-.62.36-.62.94 0 1.29l101.88 58.78a2.44 2.44 0 0 0 2.23 0l68.16-36.86Z" style="fill:#fafafa"/><path d="M419.14 249.48a2.3 2.3 0 0 0 .75.26 2.25 2.25 0 0 0 1.21 0 1 1 0 0 0 .38-.14c.62-.33.55-1-.16-1.35a2.56 2.56 0 0 0-1.07-.31 2.2 2.2 0 0 0-1.28.21c-.05 0-.1.05-.12.1-.47.33-.38.85.29 1.23Z" style="fill:#263238"/><path d="M358.55 286v7.35a2.3 2.3 0 0 1-1.13-.26l-101.88-58.77a2.49 2.49 0 0 1-1.11-1.94v-4.77a2.46 2.46 0 0 1 .85-1.72c-.33.33-.26.77.26 1.08l101.88 58.77a2 2 0 0 0 1.13.26Z" style="fill:#e6e6e6"/><path d="M431.07 239.31a4.46 4.46 0 0 0-4.62.27c-2.79 1.61-5.19 5.32-6.31 9.34l1.52.23c1-3.57 3.16-6.88 5.55-8.26a4.05 4.05 0 0 1 1.92-.59 2.15 2.15 0 0 1 1.16.31c1.22.73 1.91 2.68 1.83 5.21-.14 4.87-2.93 10.38-6.22 12.27a3.65 3.65 0 0 1-2.3.57l-1.66.95.1.06a3.68 3.68 0 0 0 1.94.53 5.32 5.32 0 0 0 2.68-.8c3.75-2.16 6.81-8.11 7-13.53.07-3.14-.87-5.53-2.59-6.56Z" style="fill:#263238"/><path d="M254.44 223.4a1.84 1.84 0 0 0 .89 1.41l102.33 59a2 2 0 0 0 1.79 0l80.4-49.14v-1.78l-104.08-60.05L255.33 222a1.86 1.86 0 0 0-.89 1.4Z" style="fill:#fee600"/><path d="m439.85 232.93-80.39 49.14a1.76 1.76 0 0 1-.9.21 1.7 1.7 0 0 1-.91-.21L255.33 223c-.49-.28-.49-.74 0-1l80.45-49.14Z" style="fill:#fee600"/><path d="m439.85 232.93-80.39 49.14a1.76 1.76 0 0 1-.9.21 1.7 1.7 0 0 1-.91-.21L255.33 223c-.49-.28-.49-.74 0-1l80.45-49.14Z" style="fill:#fff;opacity:.35000000000000003"/><path d="M439.85 232.93v1.78l-80.39 49.14a1.77 1.77 0 0 1-.91.21v-1.78a1.76 1.76 0 0 0 .9-.21Z" style="fill:#fff;opacity:.2"/><path d="M439.85 256.32v-23.35l-1.22.83v23.24l1.22-.72z" style="fill:#fee600"/><path d="M439.85 256.32v-23.35l-1.22.83v23.24l1.22-.72z" style="fill:#fff;opacity:.2"/><path d="m211.83 68.58-33.62-19.41-.13-.07-.24-.14c-16.31-9.23-38.72-7.81-63.48 6.48-49.82 28.77-90.21 98.73-90.21 156.26 0 28.58 10 48.71 26.13 58.21l.25.14.12.07 33.62 19.41L90 274.45a96 96 0 0 0 25-10.34c49.82-28.76 90.21-98.72 90.21-156.24a96.15 96.15 0 0 0-3.47-26.58Z" style="fill:#fee600"/><path d="m211.83 68.58-33.62-19.41-.13-.07-.24-.14c-16.31-9.23-38.72-7.81-63.48 6.48-49.82 28.77-90.21 98.73-90.21 156.26 0 28.58 10 48.71 26.13 58.21l.25.14.12.07 33.62 19.41L90 274.45a96 96 0 0 0 25-10.34c49.82-28.76 90.21-98.72 90.21-156.24a96.15 96.15 0 0 0-3.47-26.58Z" style="fill:#fff;opacity:.4"/><path d="M24.94 197.63a134.65 134.65 0 0 0-.79 14.07c0 28.58 10 48.71 26.13 58.21l.25.14.12.07 33.62 19.41L90 274.45c1.88-.46 3.78-1 5.7-1.64l8.53-29.41Z" style="fill:#fee600;opacity:.4"/><ellipse cx="148.35" cy="179.24" rx="127.57" ry="73.66" style="fill:#fee600" transform="rotate(-60 148.346 179.236)"/><ellipse cx="148.35" cy="179.24" rx="127.57" ry="73.66" style="fill:#fff;opacity:.6000000000000001" transform="rotate(-60 148.346 179.236)"/><path d="M216.79 93.2c-11.18-19.38-34.12-21.56-61.34-5.84-45.06 26-83.12 91.94-83.12 144 0 13.63 2.62 25.37 7.58 33.95 11.18 19.38 34.12 21.56 61.34 5.84 45.06-26 83.12-91.93 83.12-144 0-13.63-2.62-25.37-7.57-33.95Z" style="fill:#fee600"/><path d="M218 93.92c-12.67-20.23-37.22-23.34-65.65-8.32-47 24.86-85.12 90.78-83.12 144 .53 13.94 3.77 26 9.39 35 12.67 20.24 37.21 23.35 65.65 8.32 47.05-24.85 85.11-90.77 83.11-144-.52-13.94-3.76-26-9.38-35Z" style="fill:#fee600"/><path d="M218 93.92c-12.67-20.23-37.22-23.34-65.65-8.32-47 24.86-85.12 90.78-83.12 144 .53 13.94 3.77 26 9.39 35 12.67 20.24 37.21 23.35 65.65 8.32 47.05-24.85 85.11-90.77 83.11-144-.52-13.94-3.76-26-9.38-35Z" style="fill:#fff;opacity:.4"/><path d="M135.14 267.72c-18.1 9.57-34.61 11.75-47.5 6.87a38.31 38.31 0 0 1-9-10c-5.62-9-8.86-21.06-9.39-35-2-53.17 36.07-119.09 83.12-144C170.5 76 187 73.85 199.9 78.73a38.65 38.65 0 0 1 9 10c5.61 9 8.85 21.06 9.38 35 1.97 53.27-36.08 119.14-83.14 143.99Z" style="fill:#fafafa"/><path d="m148.58 179.24-49.76-3.35q18.17-35.47 45-53.44Z" style="fill:#fee600;opacity:.30000000000000004"/><path d="M142.82 98.7a4.4 4.4 0 0 0-1.9 3.47v9.77c0 1.31.85 1.87 1.9 1.25a4.38 4.38 0 0 0 1.9-3.47V100c0-1.35-.85-1.91-1.9-1.3ZM207.63 136.12a4.36 4.36 0 0 1-2 3.38l-8.46 4.9c-1.13.65-2 .19-2-1a4.36 4.36 0 0 1 2-3.38l8.46-4.9c1.1-.67 2.01-.21 2 1ZM75.63 215.07a4.45 4.45 0 0 1 2.05-3.38l8.46-4.89c1.13-.65 2-.2 2 1a4.42 4.42 0 0 1-2.06 3.38l-8.46 4.9c-1.08.67-2 .21-1.99-1.01ZM140.45 252.5a4.41 4.41 0 0 0 1.9-3.47v-9.78c0-1.3-.85-1.86-1.9-1.25a4.41 4.41 0 0 0-1.91 3.47v9.77c0 1.31.86 1.87 1.91 1.26ZM146.65 182.76l-47.83-6.87h51.59l-3.76 6.87z" style="fill:#fee600"/><path d="M148.49 123.37s4.43 41.09 5.81 50.62a6.68 6.68 0 0 1 .21 1.69 13.63 13.63 0 0 1-6.16 10.67c-1.7 1-3.24 1.07-4.35.43-.57-.33-2.74-1.59-3.3-1.9-1.14-.64-1.84-2-1.84-4-.56-9.88 3.14-57.12 3.14-57.12l3.21-2.31Z" style="fill:#37474f"/><path d="M154.51 175.68a13.63 13.63 0 0 1-6.16 10.67c-3.4 2-6.16.37-6.16-3.56-.56-9.84 3.09-57.1 3.09-57.1l3.21-2.32s6 48.37 6.02 52.31Z" style="fill:#455a64"/><path d="M151.13 177.63a6.14 6.14 0 0 1-2.78 4.82c-1.54.89-2.78.17-2.78-1.61a6.15 6.15 0 0 1 2.78-4.82c1.54-.88 2.78-.17 2.78 1.61Z" style="fill:#263238"/><path d="M188.22 174.47h9.98v.83h-9.98z" style="fill:#37474f" transform="rotate(-6.86 193.372 175.014)"/><path d="M166.34 215.71h.83v9.98h-.83z" style="fill:#37474f" transform="rotate(-23 167.895 222.389)"/><path d="M116.45 125.82h.83v9.98h-.83z" style="fill:#37474f" transform="rotate(-23 117.676 131.83)"/><path d="M85.43 176.2h9.98v.83h-9.98z" style="fill:#37474f" transform="rotate(-6.87 90.47 176.643)"/><path d="M193.95 111.24h13.36v.83h-13.36z" style="fill:#37474f" transform="rotate(-48.27 200.654 111.652)"/><path d="M160.83 92.11h13.36v.83h-13.36z" style="fill:#37474f" transform="rotate(-71.69 167.503 92.525)"/><path d="M109.02 258.35h13.36v.83h-13.36z" style="fill:#37474f" transform="rotate(-71.69 115.691 258.757)"/><path d="M75.89 239.22h13.36v.83H75.89z" style="fill:#37474f" transform="rotate(-48.27 82.586 239.659)"/><path d="M140.81 44a3 3 0 0 0-1.8-2.5 9.57 9.57 0 0 0-8.66 0 3 3 0 0 0-1.8 2.5v23.5a3 3 0 0 0 1.8 2.5 9.57 9.57 0 0 0 8.65 0 3 3 0 0 0 1.8-2.5Z" style="fill:#455a64"/><path d="M130.35 46.47a3 3 0 0 1-1.8-2.5 3 3 0 0 1 1.8-2.5 9.57 9.57 0 0 1 8.66 0 3 3 0 0 1 1.8 2.5 3 3 0 0 1-1.8 2.5 9.57 9.57 0 0 1-8.66 0Z" style="fill:#37474f"/><path d="M152.18 29.6c0-2.59-1.7-5.18-5.12-7.15-6.83-3.94-17.91-3.94-24.75 0-3.41 2-5.12 4.56-5.12 7.15V51c0 2.58 1.71 5.17 5.12 7.14 6.84 3.95 17.92 3.95 24.75 0 3.42-2 5.12-4.56 5.12-7.14Z" style="fill:#fee600"/><path d="M122.31 36.74c-3.41-2-5.12-4.56-5.12-7.14s1.71-5.18 5.12-7.15c6.84-3.94 17.92-3.94 24.75 0 3.42 2 5.12 4.56 5.12 7.15s-1.7 5.17-5.12 7.14c-6.83 3.94-17.91 3.94-24.75 0Z" style="fill:#fff;opacity:.30000000000000004"/><path d="M123.07 37.12v21.42c.49.24 1 .48 1.53.7V37.82a12.41 12.41 0 0 1-1.53-.7Zm5.37 1.88v21.45c.48.1 1 .19 1.52.25V39.28a12 12 0 0 1-1.52-.28Zm-9.63-5.21v21.43a11.66 11.66 0 0 0 1.52 1.55V35.36a8.25 8.25 0 0 1-1.52-1.56Zm25.77 4.11v21.43c.55-.22 1-.46 1.52-.7V37.21a11.64 11.64 0 0 1-1.52.7Zm4.26-2.4v21.42a12.06 12.06 0 0 0 1.53-1.49V34.08a9.11 9.11 0 0 1-1.53 1.43Zm-9.62 3.81v21.42c.52-.06 1-.15 1.52-.24V39c-.52.16-1 .25-1.52.32Zm-5.3.33v21.45h1.52V39.65a6.44 6.44 0 0 1-1.52 0Z" style="opacity:.2"/><path d="M70.91 96a3.07 3.07 0 0 0-3.07-.25 9.6 9.6 0 0 0-5.61 6.61 3 3 0 0 0 .75 3L80.9 120.5a3 3 0 0 0 3.06.25 9.55 9.55 0 0 0 5.61-6.61 3 3 0 0 0-.75-3Z" style="fill:#455a64"/><path d="M66.05 105.55a2.64 2.64 0 0 1-3.82-3.24 9.6 9.6 0 0 1 5.61-6.61 2.64 2.64 0 0 1 3.81 3.24 9.56 9.56 0 0 1-5.6 6.61Z" style="fill:#37474f"/><path d="M69.72 87.43c-1.33-1.13-3.41-1.38-5.92-.49-5 1.8-9.88 7.51-10.83 12.76-.48 2.63.1 4.64 1.44 5.77l11 9.38c1.33 1.13 3.41 1.38 5.93.48 5-1.79 9.87-7.51 10.82-12.76.48-2.62-.1-4.63-1.44-5.77Z" style="fill:#fee600"/><path d="M60.33 106c-2.51.9-4.59.64-5.92-.49s-1.92-3.18-1.41-5.81c1-5.25 5.8-11 10.83-12.76 2.51-.9 4.59-.64 5.92.49s1.92 3.14 1.44 5.77c-.98 5.25-5.83 10.96-10.86 12.8Z" style="fill:#fff;opacity:.30000000000000004"/><path d="m60.87 105.73 11 9.37c.34-.14.69-.3 1-.48l-11-9.37a7.89 7.89 0 0 1-1 .48Zm3.31-1.94 11.06 9.39c.26-.21.54-.44.8-.68L65 103.13a7.09 7.09 0 0 1-.82.66Zm-6.89 2.69 11 9.37a6.8 6.8 0 0 0 1.47-.11l-11-9.37a5.73 5.73 0 0 1-1.47.11ZM70.68 95l11 9.37c.13-.38.21-.74.3-1.09L71 93.9a8.43 8.43 0 0 1-.32 1.1Zm.63-3.25 11 9.37a8.14 8.14 0 0 0-.1-1.44l-11-9.35a6 6 0 0 1 .1 1.41Zm-2.25 6.63 11 9.37q.3-.45.54-.9l-11-9.38a10.28 10.28 0 0 1-.54.9Zm-2.15 2.88L78 110.63l.67-.79-11.06-9.38a4.19 4.19 0 0 1-.7.79Z" style="opacity:.2"/><path d="M192.33 50.2h12.19v9.85h-12.19z" style="fill:#455a64" transform="rotate(-150 198.424 55.127)"/><rect width="23.91" height="14.5" x="192.61" y="37.36" rx="1.81" style="fill:#fee600" transform="matrix(-.87 -.5 .5 -.87 359.41 185.52)"/><path d="M200.42 45.89h14.5v1.03h-14.5z" style="opacity:.2" transform="rotate(-60 207.671 46.402)"/><path d="m217.35 43.69-7.19 12.44a1.82 1.82 0 0 1-.44-.17l-.48-.28 7.25-12.56.48.28a2.12 2.12 0 0 1 .38.29Z" style="opacity:.2"/><path d="M203.56 47.7h14.5v1.03h-14.5z" style="opacity:.2" transform="rotate(-60 210.82 48.209)"/><path d="m191.7 45.43 7.14-12.38a1.58 1.58 0 0 1 .56.21l.39.22L192.54 46l-.39-.22a1.89 1.89 0 0 1-.45-.35Z" style="opacity:.2"/><path d="M197.21 44.03h14.5v1.03h-14.5z" style="opacity:.2" transform="rotate(-60 204.454 44.556)"/><path d="M190.96 40.43h14.5v1.03h-14.5z" style="opacity:.2" transform="rotate(-60 198.21 40.951)"/><path d="M194.1 42.24h14.5v1.03h-14.5z" style="opacity:.2" transform="rotate(-60 201.344 42.761)"/><path d="M34 404a2.56 2.56 0 0 1-1.07-2.63l25.76-114.14a4.72 4.72 0 0 1 2-2.68L214.06 196a3.38 3.38 0 0 1 3.05-.06 2.56 2.56 0 0 1 1.07 2.63L192.4 312.68a4.72 4.72 0 0 1-2 2.68L37 403.92a3.38 3.38 0 0 1-3 .08Z" style="fill:#fee600"/><path d="M34 404a2.56 2.56 0 0 1-1.07-2.63l25.76-114.14a4.72 4.72 0 0 1 2-2.68L214.06 196a3.38 3.38 0 0 1 3.05-.06 2.56 2.56 0 0 1 1.07 2.63L192.4 312.68a4.72 4.72 0 0 1-2 2.68L37 403.92a3.38 3.38 0 0 1-3 .08Z" style="fill:#fff;opacity:.8"/><path d="M61.64 288.94 35.86 403.06c-.22 1 .3 1.36 1.17.86l153.4-88.56a4.72 4.72 0 0 0 2-2.68l25.78-114.12c.22-1-.3-1.37-1.17-.87L63.62 286.26a4.73 4.73 0 0 0-1.98 2.68Z" style="fill:#fee600"/><path d="M61.64 288.94 35.86 403.06c-.22 1 .3 1.36 1.17.86l153.4-88.56a4.72 4.72 0 0 0 2-2.68l25.78-114.12c.22-1-.3-1.37-1.17-.87L63.62 286.26a4.73 4.73 0 0 0-1.98 2.68Z" style="fill:#fff;opacity:.6000000000000001"/><path d="M61.64 288.94 35.86 403.06c-.22 1 .3 1.36 1.17.86l153.4-88.56a4.72 4.72 0 0 0 2-2.68l25.78-114.12c.22-1-.3-1.37-1.17-.87L63.62 286.26a4.73 4.73 0 0 0-1.98 2.68Z" style="opacity:.05"/><path d="M220.06 197.64a3.38 3.38 0 0 0-3.05.05L63.62 286.26A2.89 2.89 0 0 0 62.3 289l20.16 141.31a4.1 4.1 0 0 0 1.73 2.69 3.4 3.4 0 0 0 3.06-.06l153.39-88.56a2.91 2.91 0 0 0 1.32-2.71l-20.17-141.38a4.07 4.07 0 0 0-1.73-2.65Z" style="fill:#fee600"/><path d="M220.06 197.64a3.38 3.38 0 0 0-3.05.05L63.62 286.26A2.89 2.89 0 0 0 62.3 289l20.16 141.31a4.1 4.1 0 0 0 1.73 2.69 3.4 3.4 0 0 0 3.06-.06l153.39-88.56a2.91 2.91 0 0 0 1.32-2.71l-20.17-141.38a4.07 4.07 0 0 0-1.73-2.65Z" style="fill:#fff;opacity:.8"/><path d="M65.25 290.67 85.41 432a1.15 1.15 0 0 0 1.84.89l153.39-88.56a2.91 2.91 0 0 0 1.32-2.71l-20.17-141.33a1.14 1.14 0 0 0-1.83-.89L66.57 288a2.91 2.91 0 0 0-1.32 2.67Z" style="fill:#fee600"/><path d="M65.25 290.67 85.41 432a1.15 1.15 0 0 0 1.84.89l153.39-88.56a2.91 2.91 0 0 0 1.32-2.71l-20.17-141.33a1.14 1.14 0 0 0-1.83-.89L66.57 288a2.91 2.91 0 0 0-1.32 2.67Z" style="fill:#fff;opacity:.9500000000000001"/><path d="m76.43 388-18 10.39a3 3 0 0 0-1.11 0l-21.24 4.1H36l39.25-22.68Z" style="fill:#fee600"/><path d="m76.43 388-18 10.39a3 3 0 0 0-1.11 0l-21.24 4.1H36l39.25-22.68Z" style="fill:#fff;opacity:.5"/><path d="m76.43 388-18 10.39a3 3 0 0 0-1.11 0l-21.24 4.1H36l39.25-22.68Z" style="opacity:.2"/><path d="M82.3 429.21 60.17 399.4a3 3 0 0 0-1.67-1L76.43 388Z" style="fill:#fee600"/><path d="M82.3 429.21 60.17 399.4a3 3 0 0 0-1.67-1L76.43 388Z" style="fill:#fff;opacity:.6000000000000001"/><path d="M82.3 429.21 60.17 399.4a3 3 0 0 0-1.67-1L76.43 388Z" style="opacity:.1"/><path d="M81.61 430.6 60.2 402.79a3.4 3.4 0 0 0-2.91-1.18l-20 2.89a6 6 0 0 1-3.28-.59c-.81-.47-.67-1 .31-1.2l23-4.43a3.15 3.15 0 0 1 2.87 1.12l24.42 32.89c.6.8.42 1.08-.4.61a10.77 10.77 0 0 1-2.6-2.3Z" style="fill:#fee600"/><path d="M81.61 430.6 60.2 402.79a3.4 3.4 0 0 0-2.91-1.18l-20 2.89a6 6 0 0 1-3.28-.59c-.81-.47-.67-1 .31-1.2l23-4.43a3.15 3.15 0 0 1 2.87 1.12l24.42 32.89c.6.8.42 1.08-.4.61a10.77 10.77 0 0 1-2.6-2.3Z" style="fill:#fff;opacity:.8"/><path d="M218.23 198a2.5 2.5 0 0 0-1.12-2.07 3.41 3.41 0 0 0-3.05.06l-153.4 88.56a4.48 4.48 0 0 0-1.2 1.12 4.61 4.61 0 0 0-.78 1.57l-3.63 16.12 3 1.69 156.54-90.38 3.64-16.11a2.28 2.28 0 0 0 0-.56Z" style="fill:#fee600"/><path d="M218.18 198.56c.22-1-.3-1.37-1.17-.87L63.62 286.26a4.73 4.73 0 0 0-2 2.68L58 305.05l156.54-90.38Z" style="opacity:.6000000000000001"/><path d="M62.41 287.38a4.36 4.36 0 0 0-.77 1.56L58 305.05l-3-1.69 3.63-16.12a4.52 4.52 0 0 1 .78-1.57Z" style="opacity:.5"/><path d="M218.23 198c-.07-.55-.55-.69-1.22-.3l-153.4 88.55a4.23 4.23 0 0 0-1.2 1.13l-2.95-1.71a4.48 4.48 0 0 1 1.2-1.12L214.06 196a3.41 3.41 0 0 1 3.05-.06 2.52 2.52 0 0 1 1.12 2.06Z" style="opacity:.2"/><path d="m222 201.64-.2-1.35a.79.79 0 0 0 0-.2.11.11 0 0 0 0-.05 4.08 4.08 0 0 0-1.68-2.39 3.38 3.38 0 0 0-3.05.05L63.62 286.26a2.68 2.68 0 0 0-1.06 1.21 2.65 2.65 0 0 0-.26 1.5l2.89 20.25 3 1.71 156.55-90.38Z" style="fill:#fee600"/><path d="M224.69 220.55 68.14 310.93l-2.89-20.26a2.68 2.68 0 0 1 .27-1.5 2.71 2.71 0 0 1 1-1.21L220 199.4a1.11 1.11 0 0 1 1.75.58v.06a.43.43 0 0 1 0 .05c0 .07 0 .14.05.2l.19 1.35Z" style="opacity:.2"/><path d="m68.14 310.93-3-1.71L62.3 289a2.65 2.65 0 0 1 .26-1.5l3 1.7a2.68 2.68 0 0 0-.27 1.5Z" style="opacity:.5"/><path d="M221.74 200a1.11 1.11 0 0 0-1.77-.64L66.57 288a2.71 2.71 0 0 0-1 1.21l-3-1.7a2.86 2.86 0 0 1 1-1.22L217 197.7a3.38 3.38 0 0 1 3.05-.06 4.1 4.1 0 0 1 1.69 2.36Z" style="opacity:.30000000000000004"/><g style="opacity:.2"><path d="M79.32 290.83a5.25 5.25 0 0 1 2.5-4.85c1.63-.94 3.15-.3 3.4 1.44a5.27 5.27 0 0 1-2.5 4.86c-1.63.94-3.15.3-3.4-1.45ZM100 278.89a5.28 5.28 0 0 1 2.5-4.86c1.63-.94 3.16-.29 3.4 1.45a5.28 5.28 0 0 1-2.5 4.86c-1.62.94-3.14.29-3.4-1.45ZM120.67 267a5.27 5.27 0 0 1 2.5-4.86c1.63-.94 3.16-.29 3.4 1.45a5.25 5.25 0 0 1-2.5 4.85c-1.63.91-3.15.26-3.4-1.44ZM162 243.09a5.28 5.28 0 0 1 2.5-4.86c1.63-.94 3.16-.29 3.41 1.45a5.29 5.29 0 0 1-2.51 4.86c-1.62.94-3.14.29-3.4-1.45ZM182.71 231.15a5.27 5.27 0 0 1 2.5-4.86c1.63-.94 3.15-.29 3.4 1.45a5.25 5.25 0 0 1-2.5 4.85c-1.63.94-3.11.3-3.4-1.44ZM203.37 219.21a5.25 5.25 0 0 1 2.5-4.85c1.63-.94 3.15-.3 3.4 1.44a5.27 5.27 0 0 1-2.5 4.86c-1.63.94-3.16.34-3.4-1.45Z"/></g><path d="M85.58 284.6a9.46 9.46 0 0 1-.16 1.79 7.89 7.89 0 0 1-.22.9 5.49 5.49 0 0 1-2.47 3.29 5.08 5.08 0 0 1-2.62.69 4.51 4.51 0 0 1-.72 0 3.82 3.82 0 0 1-.08-.39 4.56 4.56 0 0 1 .39-2.37 2.61 2.61 0 0 0 1.64-.28 3.41 3.41 0 0 0 1.4-2.57v-.13a7.61 7.61 0 0 0 0-.88 14.32 14.32 0 0 0-2.76-7.83 16.18 16.18 0 0 0-2-2.28 10.73 10.73 0 0 0-2-1.47c-1.51-.86-2.9-1-3.84-.52s-1.47 1.82-1.47 3.58a11.44 11.44 0 0 0 .3 2.44L68.63 280v-.16a13.62 13.62 0 0 1-.55-3.71c0-2.79 1-4.92 2.86-6s4.18-.88 6.6.52a13.9 13.9 0 0 1 3.06 2.45 17.83 17.83 0 0 1 1.86 2.32 17.16 17.16 0 0 1 3.12 9.18ZM106.27 272.66a10.55 10.55 0 0 1-.15 1.79 6.51 6.51 0 0 1-.23.92 5.44 5.44 0 0 1-2.47 3.27 5.05 5.05 0 0 1-2.62.69 5.62 5.62 0 0 1-.7-.05 2.23 2.23 0 0 1-.09-.39 4.55 4.55 0 0 1 .38-2.37 2.65 2.65 0 0 0 1.64-.28 3.38 3.38 0 0 0 1.4-2.58s0-.08 0-.12a7.48 7.48 0 0 0 0-.88 15.28 15.28 0 0 0-4.72-10.11 10.92 10.92 0 0 0-2-1.48c-1.51-.86-2.9-1.05-3.84-.51s-1.47 1.81-1.47 3.58a10.86 10.86 0 0 0 .31 2.43L89.32 268v-.16a13.49 13.49 0 0 1-.55-3.7c0-2.8 1-4.92 2.86-6s4.18-.87 6.61.52a13.91 13.91 0 0 1 3 2.45 18.45 18.45 0 0 1 1.86 2.33 17.05 17.05 0 0 1 3.17 9.22ZM126.93 260.73a10.55 10.55 0 0 1-.15 1.79 6.73 6.73 0 0 1-.23.91 5.47 5.47 0 0 1-2.47 3.28 5.08 5.08 0 0 1-2.62.69 5.49 5.49 0 0 1-.7 0 2.23 2.23 0 0 1-.09-.39 4.45 4.45 0 0 1 .38-2.37 2.67 2.67 0 0 0 1.64-.28 3.37 3.37 0 0 0 1.4-2.58s0-.08 0-.12a7.61 7.61 0 0 0 0-.88 14.32 14.32 0 0 0-2.76-7.83 15 15 0 0 0-2-2.28 11.28 11.28 0 0 0-2-1.48c-1.51-.86-2.9-1-3.84-.51s-1.47 1.81-1.47 3.58a11.44 11.44 0 0 0 .3 2.44l-2.32 1.38v-.17a13.86 13.86 0 0 1-.54-3.7c0-2.8 1-4.92 2.86-6s4.18-.87 6.6.53a13.57 13.57 0 0 1 3.05 2.44 17.9 17.9 0 0 1 1.88 2.33 17.2 17.2 0 0 1 3.08 9.22ZM168.28 236.89a10.46 10.46 0 0 1-.15 1.79 8.43 8.43 0 0 1-.23.93 5.51 5.51 0 0 1-2.47 3.27 5.13 5.13 0 0 1-2.61.68 5.52 5.52 0 0 1-.71-.05 2.58 2.58 0 0 1-.1-.42 4.53 4.53 0 0 1 .37-2.34 2.62 2.62 0 0 0 1.67-.28 3.43 3.43 0 0 0 1.4-2.61.28.28 0 0 1 0-.09 7.35 7.35 0 0 0 0-.88 15.28 15.28 0 0 0-4.75-10.13 11.26 11.26 0 0 0-1.94-1.45c-1.51-.87-2.9-1.05-3.84-.52s-1.46 1.82-1.46 3.58a10.46 10.46 0 0 0 .29 2.4l-2.49 1.44v-.13a14 14 0 0 1-.54-3.71c0-2.8 1-4.92 2.86-6s4.18-.88 6.6.51a13.71 13.71 0 0 1 3 2.43 17.9 17.9 0 0 1 1.88 2.33 17.16 17.16 0 0 1 3.22 9.25ZM189 224.94a10.39 10.39 0 0 1-.16 1.8 6.51 6.51 0 0 1-.23.92 5.48 5.48 0 0 1-2.47 3.27 5.11 5.11 0 0 1-2.61.68 5.63 5.63 0 0 1-.71 0 2.71 2.71 0 0 1-.1-.43 4.49 4.49 0 0 1 .37-2.33 2.61 2.61 0 0 0 1.67-.29 3.38 3.38 0 0 0 1.4-2.6s0-.06 0-.1v-.88a14.25 14.25 0 0 0-2.78-7.85 15 15 0 0 0-2-2.28 11.26 11.26 0 0 0-1.94-1.45c-1.51-.86-2.9-1.05-3.84-.51s-1.47 1.82-1.47 3.58a11 11 0 0 0 .29 2.39l-2.42 1.4v-.13a13.94 13.94 0 0 1-.55-3.7c0-2.8 1-4.93 2.86-6s4.19-.89 6.61.51a13.66 13.66 0 0 1 3 2.43 17.83 17.83 0 0 1 1.87 2.33 17.11 17.11 0 0 1 3.21 9.24ZM209.64 213a10.39 10.39 0 0 1-.16 1.8 8.46 8.46 0 0 1-.23.9 5.46 5.46 0 0 1-2.47 3.29 5.13 5.13 0 0 1-2.61.68 5.74 5.74 0 0 1-.71 0 3 3 0 0 1-.09-.43 4.48 4.48 0 0 1 .36-2.33 2.63 2.63 0 0 0 1.67-.29 3.41 3.41 0 0 0 1.4-2.6.34.34 0 0 1 0-.1 7.35 7.35 0 0 0 .05-.88 14.25 14.25 0 0 0-2.78-7.85 14.47 14.47 0 0 0-2-2.27 10.49 10.49 0 0 0-1.94-1.46c-1.51-.86-2.89-1.05-3.83-.51s-1.47 1.81-1.47 3.58a10.53 10.53 0 0 0 .29 2.4l-2.49 1.43v-.13a14 14 0 0 1-.55-3.7c0-2.8 1-4.92 2.86-6s4.18-.89 6.61.51a13.9 13.9 0 0 1 3 2.42 18.59 18.59 0 0 1 1.88 2.33 17.17 17.17 0 0 1 3.21 9.21Z" style="fill:#263238"/><path d="m71.56 334.73 156.53-90.3-3.4-23.88-156.55 90.31 3.42 23.87z" style="fill:#fee600"/><g style="opacity:.65"><path d="m71.56 334.73 156.53-90.3-3.4-23.88-156.55 90.31 3.42 23.87z" style="fill:#fff"/></g><path d="M83.9 340.52c.19 1.32 1.41 1.77 2.73 1l11.74-6.78a4.13 4.13 0 0 0 2-3.76c-.19-1.32-1.41-1.77-2.73-1L86 336.76a4.14 4.14 0 0 0-2.1 3.76ZM103.71 329.08c.19 1.32 1.41 1.77 2.73 1l11.75-6.78a4.12 4.12 0 0 0 2-3.76c-.19-1.32-1.41-1.77-2.73-1l-11.74 6.78a4.16 4.16 0 0 0-2.01 3.76ZM123.53 317.64c.19 1.32 1.41 1.77 2.72 1l11.75-6.77a4.15 4.15 0 0 0 2.05-3.76c-.19-1.32-1.41-1.77-2.73-1l-11.75 6.78a4.13 4.13 0 0 0-2.04 3.75ZM143.34 306.2c.19 1.32 1.41 1.77 2.73 1l11.74-6.78a4.13 4.13 0 0 0 2.05-3.76c-.19-1.32-1.41-1.77-2.73-1l-11.74 6.78a4.14 4.14 0 0 0-2.05 3.76ZM163.15 294.76c.19 1.32 1.41 1.77 2.73 1l11.75-6.76a4.14 4.14 0 0 0 2-3.76c-.19-1.32-1.41-1.77-2.73-1L165.2 291a4.16 4.16 0 0 0-2.05 3.76ZM183 283.32c.19 1.32 1.41 1.77 2.72 1l11.75-6.78a4.12 4.12 0 0 0 2-3.76c-.18-1.32-1.4-1.77-2.72-1L185 279.56a4.13 4.13 0 0 0-2 3.76ZM202.78 271.88c.19 1.32 1.41 1.77 2.73 1l11.74-6.78a4.13 4.13 0 0 0 2.05-3.76c-.19-1.32-1.41-1.77-2.73-1l-11.74 6.78a4.14 4.14 0 0 0-2.05 3.76Z" style="fill:#fee600"/><g style="opacity:.17"><path d="M232.33 340.66a.63.63 0 0 1-.67-.48l-9.57-66.84a.49.49 0 0 1 .52-.53.63.63 0 0 1 .67.49l9.57 66.83a.49.49 0 0 1-.52.53ZM212.5 352.1a.62.62 0 0 1-.66-.48l-9.57-66.83a.5.5 0 0 1 .52-.54.63.63 0 0 1 .66.49l9.55 66.83a.48.48 0 0 1-.5.53ZM192.68 363.55a.62.62 0 0 1-.66-.49l-9.57-66.83a.49.49 0 0 1 .52-.53.63.63 0 0 1 .66.48L193.2 363a.49.49 0 0 1-.52.55ZM172.86 375a.63.63 0 0 1-.67-.48l-9.57-66.83a.5.5 0 0 1 .52-.54.64.64 0 0 1 .67.49l9.57 66.83a.49.49 0 0 1-.52.53ZM153 386.44a.64.64 0 0 1-.67-.49l-9.57-66.83a.49.49 0 0 1 .52-.53.62.62 0 0 1 .67.48l9.57 66.83a.5.5 0 0 1-.52.54ZM133.22 397.88a.63.63 0 0 1-.67-.48L123 330.56a.49.49 0 0 1 .52-.53.63.63 0 0 1 .67.49l9.57 66.83a.49.49 0 0 1-.54.53ZM113.4 409.33a.64.64 0 0 1-.67-.49L103.16 342a.49.49 0 0 1 .52-.53.62.62 0 0 1 .67.48l9.57 66.83a.51.51 0 0 1-.52.55ZM93.57 420.77a.63.63 0 0 1-.66-.48l-9.57-66.84a.49.49 0 0 1 .52-.53.62.62 0 0 1 .66.48l9.58 66.84a.5.5 0 0 1-.53.53Z" style="fill:#fee600"/><path d="M86.4 370.65a.71.71 0 0 1-.55-.24.45.45 0 0 1 .11-.7l138.76-80.11a.68.68 0 0 1 .83.15.45.45 0 0 1-.12.71L86.68 370.57a.65.65 0 0 1-.28.08ZM88.79 387.35a.67.67 0 0 1-.55-.23.44.44 0 0 1 .12-.7l138.75-80.11a.66.66 0 0 1 .83.15.45.45 0 0 1-.11.7L89.07 387.27a.54.54 0 0 1-.28.08ZM91.18 404.06a.68.68 0 0 1-.55-.23.45.45 0 0 1 .12-.71L229.5 323a.68.68 0 0 1 .84.15.45.45 0 0 1-.12.7L91.47 404a.6.6 0 0 1-.29.06Z" style="fill:#fee600"/><path d="M93.57 420.77a.65.65 0 0 1-.3-.06.56.56 0 0 1-.36-.42l-9.57-66.84a.44.44 0 0 1 .23-.45l138.75-80.11a.66.66 0 0 1 .6 0 .58.58 0 0 1 .36.43l9.57 66.83a.46.46 0 0 1-.24.45L93.86 420.69a.55.55 0 0 1-.29.08Zm-9-67.07L94 419.36l137.65-79.48-9.4-65.65Z" style="fill:#fee600"/></g><g style="opacity:.17"><path d="M232.33 340.66a.63.63 0 0 1-.67-.48l-9.57-66.84a.49.49 0 0 1 .52-.53.63.63 0 0 1 .67.49l9.57 66.83a.49.49 0 0 1-.52.53ZM212.5 352.1a.62.62 0 0 1-.66-.48l-9.57-66.83a.5.5 0 0 1 .52-.54.63.63 0 0 1 .66.49l9.55 66.83a.48.48 0 0 1-.5.53ZM192.68 363.55a.62.62 0 0 1-.66-.49l-9.57-66.83a.49.49 0 0 1 .52-.53.63.63 0 0 1 .66.48L193.2 363a.49.49 0 0 1-.52.55ZM172.86 375a.63.63 0 0 1-.67-.48l-9.57-66.83a.5.5 0 0 1 .52-.54.64.64 0 0 1 .67.49l9.57 66.83a.49.49 0 0 1-.52.53ZM153 386.44a.64.64 0 0 1-.67-.49l-9.57-66.83a.49.49 0 0 1 .52-.53.62.62 0 0 1 .67.48l9.57 66.83a.5.5 0 0 1-.52.54ZM133.22 397.88a.63.63 0 0 1-.67-.48L123 330.56a.49.49 0 0 1 .52-.53.63.63 0 0 1 .67.49l9.57 66.83a.49.49 0 0 1-.54.53ZM113.4 409.33a.64.64 0 0 1-.67-.49L103.16 342a.49.49 0 0 1 .52-.53.62.62 0 0 1 .67.48l9.57 66.83a.51.51 0 0 1-.52.55ZM93.57 420.77a.63.63 0 0 1-.66-.48l-9.57-66.84a.49.49 0 0 1 .52-.53.62.62 0 0 1 .66.48l9.58 66.84a.5.5 0 0 1-.53.53Z"/><path d="M86.4 370.65a.71.71 0 0 1-.55-.24.45.45 0 0 1 .11-.7l138.76-80.11a.68.68 0 0 1 .83.15.45.45 0 0 1-.12.71L86.68 370.57a.65.65 0 0 1-.28.08ZM88.79 387.35a.67.67 0 0 1-.55-.23.44.44 0 0 1 .12-.7l138.75-80.11a.66.66 0 0 1 .83.15.45.45 0 0 1-.11.7L89.07 387.27a.54.54 0 0 1-.28.08ZM91.18 404.06a.68.68 0 0 1-.55-.23.45.45 0 0 1 .12-.71L229.5 323a.68.68 0 0 1 .84.15.45.45 0 0 1-.12.7L91.47 404a.6.6 0 0 1-.29.06Z"/><path d="M93.57 420.77a.65.65 0 0 1-.3-.06.56.56 0 0 1-.36-.42l-9.57-66.84a.44.44 0 0 1 .23-.45l138.75-80.11a.66.66 0 0 1 .6 0 .58.58 0 0 1 .36.43l9.57 66.83a.46.46 0 0 1-.24.45L93.86 420.69a.55.55 0 0 1-.29.08Zm-9-67.07L94 419.36l137.65-79.48-9.4-65.65Z"/></g><path d="M109.78 360.9c4.62.93 9.27 1.71 13.91 2.51l1.72.3c.81.14 1.13-1 .27-1.15q-6.59-1.14-13.19-2.2L110 360c-.69-.09-1 .77-.23.92Z" style="fill:#455a64"/><path d="M123 352.69a12.76 12.76 0 0 0-1.54 2l-2.67 4.06q-3 4.49-5.87 9c-.6.93-1.29 1.84-1.82 2.81a.43.43 0 0 0 .1.57l.14.09-.14-.46c-.18.28.34.77.55.45 0 .05.31-.12.37-.2l.12-.18.33-.51 1-1.48 2.81-4.34c2-3.09 4-6.19 6-9.28a10.58 10.58 0 0 0 1.19-2.19c.09-.26-.27-.63-.49-.4ZM129.2 349c4.61.93 9.26 1.71 13.9 2.51l1.72.3c.81.14 1.13-1 .27-1.15q-6.59-1.14-13.18-2.2l-2.49-.38c-.69-.09-.94.77-.22.92Z" style="fill:#455a64"/><path d="M142.41 340.77a12.7 12.7 0 0 0-1.53 2l-2.68 4.05c-2 3-3.91 6-5.86 9-.61.92-1.29 1.84-1.83 2.81a.45.45 0 0 0 .11.57l.13.09-.13-.46c-.19.28.34.77.55.45 0 0 .3-.12.36-.2a1.13 1.13 0 0 0 .12-.18l.33-.51 1-1.48 2.81-4.34q3-4.63 6-9.28a11.12 11.12 0 0 0 1.2-2.19c.09-.26-.27-.63-.5-.4ZM149.27 337.55c4.62.93 9.26 1.71 13.9 2.51l1.73.3c.8.13 1.13-1 .27-1.15q-6.58-1.14-13.19-2.2c-.83-.14-1.65-.26-2.49-.38-.69-.09-.94.77-.22.92Z" style="fill:#455a64"/><path d="M162.48 329.34a13.08 13.08 0 0 0-1.53 2l-2.67 4.06q-3 4.5-5.87 9c-.6.93-1.29 1.85-1.83 2.82a.45.45 0 0 0 .11.57l.13.09-.13-.46c-.18.29.34.77.55.45 0 .06.3-.12.36-.19a1.88 1.88 0 0 0 .12-.18l.28-.5 1-1.49 2.81-4.33c2-3.09 4-6.19 6-9.28a10.88 10.88 0 0 0 1.19-2.2c.09-.25-.27-.63-.5-.39ZM169.23 326c4.61.93 9.26 1.71 13.9 2.51l1.73.3c.8.13 1.13-1 .27-1.15q-6.6-1.14-13.19-2.2c-.83-.14-1.66-.26-2.49-.38s-.94.77-.22.92Z" style="fill:#455a64"/><path d="M182.44 317.75a13.08 13.08 0 0 0-1.53 2l-2.67 4.06q-3 4.5-5.87 9c-.61.93-1.29 1.85-1.83 2.82a.45.45 0 0 0 .11.57l.13.09-.13-.46c-.19.29.34.77.55.45 0 .06.3-.12.36-.19a1.88 1.88 0 0 0 .12-.18l.33-.52 1-1.48 2.82-4.34c2-3.08 4-6.18 6-9.27a11.4 11.4 0 0 0 1.19-2.2c.09-.25-.27-.63-.5-.39ZM189.05 314.52c4.61.93 9.26 1.71 13.9 2.51l1.72.3c.81.14 1.13-1 .27-1.15q-6.58-1.14-13.18-2.2c-.83-.14-1.66-.26-2.49-.38s-.94.77-.22.92Z" style="fill:#455a64"/><path d="M202.26 306.31a12.48 12.48 0 0 0-1.53 2c-.89 1.36-1.79 2.71-2.68 4.06-2 3-3.91 6-5.86 9-.61.93-1.29 1.85-1.83 2.82a.45.45 0 0 0 .11.57l.13.09c0-.15-.09-.3-.13-.46-.19.29.34.78.54.45 0 .06.31-.11.37-.19a1.13 1.13 0 0 0 .12-.18l.33-.51 1-1.49 2.81-4.33 6-9.28a11.12 11.12 0 0 0 1.2-2.19c.09-.26-.27-.63-.5-.4ZM112.4 376.31c4.61.94 9.26 1.72 13.9 2.52l1.72.29c.81.14 1.13-1 .27-1.14q-6.58-1.14-13.18-2.2c-.83-.14-1.66-.26-2.49-.38s-.94.77-.22.91Z" style="fill:#455a64"/><path d="M125.61 368.1a13.23 13.23 0 0 0-1.54 2c-.88 1.36-1.78 2.71-2.67 4.06-2 3-3.91 6-5.87 9-.6.93-1.28 1.85-1.82 2.82a.44.44 0 0 0 .11.56l.13.1-.14-.46c-.19.29.34.77.54.45 0 .06.31-.12.37-.19s.08-.13.12-.18l.33-.52 1-1.48 2.81-4.34q3-4.62 6-9.28a10.1 10.1 0 0 0 1.19-2.19c.09-.26-.26-.63-.49-.4Z" style="fill:#455a64"/><path d="M172.7 347.84a7.51 7.51 0 0 0-4.13-1.8 9.82 9.82 0 0 0-8.3 2.61c-.28.28.27.81.57.56a9.7 9.7 0 0 1 7.18-2.32 6.62 6.62 0 0 1 3.53 1.3 3.91 3.91 0 0 1 1.32 3.36 14.18 14.18 0 0 1-2.44 6.51 20.68 20.68 0 0 1-4.72 5.15 22.33 22.33 0 0 1-6.1 3.37c-2.25.81-5 1.49-7.29.55a6.14 6.14 0 0 1-3.52-5.6 14.65 14.65 0 0 1 2.36-7.9 22.87 22.87 0 0 1 6.39-6.54 24.12 24.12 0 0 1 4-2.43 25.64 25.64 0 0 1 4.68-1.54c.71-.19-.16-.69-.86-.58a12.53 12.53 0 0 0-3.93 1.13 27.26 27.26 0 0 0-4.73 2.62 23.85 23.85 0 0 0-6.65 6.63 15.68 15.68 0 0 0-2.55 8.47 7.41 7.41 0 0 0 3.41 6.34c2.44 1.44 5.54 1.06 8.12.25a23.89 23.89 0 0 0 7-3.49 21.85 21.85 0 0 0 5.28-5.4 15.43 15.43 0 0 0 2.84-7.21 5 5 0 0 0-1.46-4.04Z" style="fill:#fee600"/><path d="m310.19 346.86 10.57 5.81 10.53 5.91 20.96 11.96 20.83 12.17 10.38 6.16 10.32 6.25-10.58-5.81-10.52-5.9-20.96-11.97-20.84-12.17-10.37-6.16-10.32-6.25zM327.22 371.46c2.37 1.24 4.71 2.53 7.07 3.79l7 3.88c4.67 2.6 9.3 5.28 13.94 7.91s9.24 5.38 13.82 8.13l6.87 4.13c2.27 1.41 4.56 2.79 6.81 4.23-2.37-1.23-4.71-2.52-7.07-3.78l-7-3.88c-4.67-2.6-9.29-5.28-13.94-7.92s-9.24-5.37-13.82-8.12l-6.9-4.14c-2.24-1.41-4.52-2.79-6.78-4.23ZM284.11 308.23l-8.68-5.23c-5.79-3.44-11.62-6.82-17.44-10.23s-9-5.19-14.92-8.49l-6.25-3.5v.7l5.85 3.5c5.79 3.45 9 5.29 14.8 8.7s11.68 6.72 17.56 10l8.82 4.94c3 1.61 5.91 3.26 8.88 4.84-2.86-1.73-5.73-3.46-8.62-5.23ZM239.76 297.61c1.56.77 3.08 1.6 4.63 2.4l4.61 2.49c3 1.66 6.05 3.39 9.05 5.12s6 3.51 8.92 5.34l4.42 2.74c1.45.95 2.92 1.86 4.36 2.84-1.56-.77-3.08-1.6-4.62-2.4l-4.57-2.49c-3-1.66-6-3.39-9-5.12s-6-3.51-8.92-5.34l-4.42-2.74c-1.55-.95-3.02-1.86-4.46-2.84Z" style="fill:#e0e0e0"/><path d="M272 327.84a6.26 6.26 0 0 0-4.86 2.8 28.92 28.92 0 0 0-1.2 8.33A24.79 24.79 0 0 1 262 352.7c-2.76 4.23-5.92 13.54-3.35 19.33s5.85 10.48 11.68 11.35 11.08-5.44 12.64-9.53Z" style="fill:#37474f"/><path d="M260.67 368.55a10.71 10.71 0 0 1-.43-3.25c.08-2.76.54-6.15 1.9-8.53a55.05 55.05 0 0 0 4.44-8.29 39.29 39.29 0 0 0 2.26-9.59c.27-2.61.14-5.51 1.07-8 2.82-7.55 11.12-6.8 15.83-7.62l16.87-12.21 6.39 22.65s-9.15 3.36-11.81 4.77c-3.52 1.86-6.79 6.34-8.91 9.54-2.7 4.06-6.05 8.29-6.07 13.36a39.13 39.13 0 0 0 1.2 8.16 7.33 7.33 0 0 1 .23 2.33c-.22 2.15-2.13 3.67-3.88 4.93-2.84 2.05-6.25 4.21-9.6 3.19-1.91-.58-3.36-2.11-4.67-3.62a22.06 22.06 0 0 1-4.82-7.82Z" style="fill:#f28f8f"/><path d="M283 363.07a19.39 19.39 0 0 1 2.29-9c1.67-2.89 5.35-8.75 7-10.34s3.13-2.07 2.6-2.6-10.07-2.86-13.27-2.91-3.61 1.9-5.31 3.34c0 0 2.64-3.64 2.64-7.14 0-2.59 1.07-9.56 5.44-10.71l1.4-.47s.12-1-1.7-.62-8 1.73-10.19 3-4.74 2.82-5.38 7.51.05 6.18-1.23 10.81a42.12 42.12 0 0 1-5 11.81 19.83 19.83 0 0 0-2.13 13.7Z" style="fill:#455a64"/><path d="M379.61 237.37c.09 8.3-1.56 31.94-7.19 53.16s-8.43 24.36-12.08 26.11c-16.2 7.76-59.56 20.22-59.56 20.22s-9.27-9.31-7.13-19.74c12.8-9.19 33.71-25 43.77-24.39l-19.1-60.83Z" style="fill:#37474f"/><path d="M271.33 381.32c3.54 0 8.73-2.59 11.66-7.47 2.39-4 .07-9.17 0-10.78-.32-.62-4.49-2.34-11.76-1.21s-9.68 4.1-11.1 7.63c.35 3.6 6.02 11.83 11.2 11.83Z" style="fill:#f0f0f0"/><path d="M391.14 403.48c-1.6.11-1.28-2.05-2.35-6.91s-4.44-25.83-4.44-25.83L359.67 380s6.63 17.45 8.71 22.49c2.31 5.59 5.55 13.26 6.07 17.61s.77 16.5 6.23 18.67 10.53-.31 14.13-2.67 7.78-10.59 11.76-14.76 7.35-6.49 10.43-10.8 2.85-15-1.32-17.19-10.08.31-13.56 2.41-8.02 7.52-10.98 7.72Z" style="fill:#f28f8f"/><path d="M318.32 231.9c-7.35 17.25-9.74 34.32-2.11 48.59S330 303.26 347 335.63c0 7.26.19 14.5 5.5 28.13 6.61 16.94 13.84 35.15 13.84 35.15s6.66-10.91 21.49-9.09c-.79-8.35-5.78-48.1-8.21-59.85-3-14.62-14.81-64.66-14.81-64.66a34.36 34.36 0 0 0 13.81-28.15ZM376.51 435.42c-1.16-3.22-1.9-6.7-2.46-13.08s-1.72-8.31-1.72-8.31.66-4.21 7.16-9.37 10.59-2.75 10.59-2.75 1.49 2.57 5.61-2.15l7.63 9.75Z" style="fill:#455a64"/><path d="M416.27 392.84c-2.43-2.31-6.3-2.27-11.45.29a30.23 30.23 0 0 0-9.13 6.63s-2.71 4.93 1.4 8.28 19.18-15.2 19.18-15.2Z" style="fill:#f0f0f0"/><path d="M420 397.32a5.29 5.29 0 0 0-2-3.49c-.34-.22-1.52-.84-1.75-1-3-2-8.45 2.26-13 6.41-5.33 4.83-10.25 14.53-14.56 21.09s-9.66 9.09-11.42 12a4.77 4.77 0 0 0 .51 5.88c.27.3 1.28 1.24 1.49 1.43 1.41 1.36 3.91 1.91 6.87 1.34 6-1.15 10.26-3.05 15.2-10.08s7.55-10.67 13.31-15.18 6.57-12.72 5.35-18.4Z" style="fill:#37474f"/><path d="M420 397.32c-1.73-7.94-9.07-2.44-15 2.93-5.33 4.83-10.25 14.52-14.56 21.09s-9.79 9-11.42 12c-3 5.4 1.15 8.8 7.12 7.65s10.26-3.05 15.2-10.08 7.55-10.67 13.31-15.18 6.57-12.73 5.35-18.41Z" style="fill:#263238"/><path d="M392.59 402.34c-1.8.8-2.51-.43-2.51-.43-5.67 5.74-6.28 9.42-6.28 9.42s5.53-6.78 8.79-8.99ZM358 267.35a232.11 232.11 0 0 1 9.83 27.95 291.55 291.55 0 0 1 7.09 28.8c1.57 9.74 3.11 19.49 4.53 29.26s2.77 19.54 3.95 29.34q-3-14.51-5.56-29.07c-1.75-9.7-3.38-19.42-5-29.15-.79-4.84-1.94-9.62-3.05-14.41s-2.34-9.57-3.55-14.34-2.51-9.52-3.87-14.26-2.77-9.47-4.37-14.12Z" style="fill:#37474f"/><path d="M372.09 176c7.73 2.59 11.5 4.2 15.36 15.2 2.63 7.52 9.08 30.27 9.08 30.27L430.67 240l-12.8 9.14s-22.12-6.92-29.88-9.84c-4.54-1.7-6.37-4.11-9.36-10.92s-6.5-19.4-8.95-26.63Z" style="fill:#ffa8a7"/><path d="M372.91 175.68c7.62 2.78 10.92 3.87 14.74 14.49S397 221 397 221l27.47 15.1-12.28 12.54s-20.28-7.37-24-8.58-6.09-2.24-8.55-7.69-11.32-29.57-11.32-29.57Z" style="fill:#37474f"/><path d="M323 198.61c1.77-17.25 7.3-18.27 10.39-24.83 3.33-.47 10.47-1.37 10.47-1.37s5.69-.88 19.26 0l9 3.58c3.86 5 15.71 14 18.26 23.33a18.14 18.14 0 0 1-8.27 19.9c-.82 6.25-2.18 14.82-2.18 14.82a150.92 150.92 0 0 1-.57 17.09c.29 5-10.59 10.75-27.23 10.07-24.88-1-39.75-15.08-39.75-15.08l10.07-27c.98-5.87-.07-14.59.55-20.51Z" style="fill:#f0f0f0"/><path d="M364.74 173.77s14.78 9.9 21 17l-12.81-15.08-7.85-3.8Z" style="fill:#455a64"/><path d="M367.34 219.51s-5.95 6-16.31 3.67c-10.68-2.34-11.84-11.52-11.84-11.52s-1.69 11.69 11.07 14.49a15.66 15.66 0 0 0 17.08-6.64Z" style="fill:#e0e0e0"/><path d="M346.49 171.32c0 15.26.68 41-14.32 59.8-19.52 24.46-51.14 23-51.14 23a79.89 79.89 0 0 1-10.68-16.83C283.91 252.07 291.9 220 310.83 213c0 0 11.28.52 11.07-10.22-.28-14 4.29-23.88 11.47-29Z" style="fill:#455a64"/><path d="M328.11 235.67c-8.15 6.05-21.66 11.94-37 9.3s-20.75-7.69-20.75-7.69S274.68 250 281 254.11c0 0 25.56 3.12 47.11-18.44Z" style="fill:#37474f"/><path d="M361.4 260.47v1.17a3.33 3.33 0 0 0 1.75 2.81l32.18 17.05a3.35 3.35 0 0 0 3.3-.11L455.38 246a3.31 3.31 0 0 0 1.55-2.92v-.81L397 279.68Z" style="fill:#ebebeb"/><path d="m456.9 242.23-35-18.61a2 2 0 0 0-2 .07l-58.32 36.45a.44.44 0 0 0 0 .76L397 279.69Z" style="fill:#fafafa"/><path d="m396.55 276.78-18.88-10.03 53.02-33.12 18.97 9.97-53.11 33.18zM386.42 247.41l.34.18 9.26 4.92 15.8-9.87.33-.2-9.6-5.11-16.13 10.08z" style="fill:#e0e0e0"/><path d="m386.76 247.59 9.26 4.92 15.8-9.87-9.26-4.92-15.8 9.87z" style="fill:#e6e6e6"/><path d="m397 279.68.08 2.2a3.27 3.27 0 0 0 1.63-.49L455.38 246a3.31 3.31 0 0 0 1.55-2.92v-.81Z" style="fill:#ebebeb"/><g style="opacity:.5;mix-blend-mode:multiply"><path d="m397 279.68.08 2.2a3.27 3.27 0 0 0 1.63-.49L455.38 246a3.31 3.31 0 0 0 1.55-2.92v-.81Z" style="fill:#e0e0e0"/></g><path d="M397.91 280.14a3.94 3.94 0 0 0 3.37-.38l56.45-35.27a4 4 0 0 0 1.81-2.8l5-37.84v-.64a3.94 3.94 0 0 0-1.26-2.75l-58.66 36.66a2.93 2.93 0 0 0-1.34 2.08Z" style="fill:#fee600"/><g style="opacity:.7000000000000001"><path d="M397.91 280.14a3.94 3.94 0 0 0 3.37-.38l56.45-35.27a4 4 0 0 0 1.81-2.8l5-37.84v-.64a3.94 3.94 0 0 0-1.26-2.75l-58.66 36.66a2.93 2.93 0 0 0-1.34 2.08Z" style="fill:#fff"/></g><path d="m397 279.69.4.21a5.38 5.38 0 0 0 .55.24l5.4-40.94a2.93 2.93 0 0 1 1.34-2.08l58.66-36.66a4.47 4.47 0 0 0-.82-.58l-58.78 36.73a2.93 2.93 0 0 0-1.34 2.08Z" style="fill:#fafafa"/><path d="M429.15 244.29c.33-2.54 2.82-6 5.54-7.68s4.67-1 4.34 1.5-2.82 6-5.55 7.68-4.67 1.03-4.33-1.5Z" style="fill:#fee600"/><path d="M307.7 227.67a195 195 0 0 1 8.14-38.53c3-10 6.06-12.94 17.21-14.82 3.4 5.42 2.73 27.43.61 34.53l-3.88 18.64a167.24 167.24 0 0 0 16.85 8.81c7.2 3.17 11.7 4.65 19.21 3.89s10.42-1.65 14.6-.84c2.23.43 7.31 1.45 9.07 1.9s5.22 2.68 8.27 4 .06 3.19-2 3.06a25 25 0 0 1-6.37-1.52 33.86 33.86 0 0 0-5.35-.79 30.1 30.1 0 0 1 2.32 5.53c.24 1 .76 2.27 0 3.25a8.23 8.23 0 0 1-2 1.39 1.59 1.59 0 0 1-.21 1.11 2.63 2.63 0 0 1-1.76.9 8 8 0 0 1-1.11.08 2 2 0 0 1-.84 1.78 8.66 8.66 0 0 1-4.46 1.15c-.24 0-2.1-.57-2.65-.72a4.47 4.47 0 0 1-1.88-.67c-.49-.46.26-1.95 1.09-2.28a8.84 8.84 0 0 1 2.89-.45 10.41 10.41 0 0 1-1.38-2.28c-1.05-1.07-6.39 1.45-11.57 1.69-3.91.18-7.42-2.79-9.29-3.18-11.92-2.47-21-4-33.37-8.22-11.3-3.79-13.4-6.54-12.14-17.41Z" style="fill:#ffa8a7"/><path d="m339.5 251.32 5 1.38a14.46 14.46 0 0 1 1.56-8.59 13.58 13.58 0 0 1 5.34-5.85l-3.4-1.37s-4.08-.44-6.75 5-1.75 9.43-1.75 9.43Z" style="fill:#e0e0e0"/><path d="M348 236.89c-4.75.51-7.06 7.83-7.28 11-.29 4.34 1.3 5.77 1.3 5.77s-25-7-29.65-10.44-6.18-6-5.79-11.3 4-27.49 6.69-37.91 4.65-13.13 7.6-15.85 7.69-3.46 12.52-4.36c0 0 2.71 5.52 2.55 17-.16 10.89-.81 14.2-1.79 19.42s-3.69 17.25-3.69 17.25Z" style="fill:#37474f"/><path d="M385.13 246.14c-.89-1.29-2.16-2.79-3.33-2.94a13 13 0 0 1 2.29 2.82ZM384.42 256.19a12.29 12.29 0 0 0-.59-3.12 31.32 31.32 0 0 0-1.08-3 14 14 0 0 0-1.51-2.82 5.87 5.87 0 0 0-2.41-2.07 4.39 4.39 0 0 1 1.12 1.07 8.51 8.51 0 0 1 .9 1.26 24 24 0 0 1 1.34 2.8c.41 1 .8 1.93 1.2 2.9a26.07 26.07 0 0 1 1.03 2.98ZM381.34 258.28a14.45 14.45 0 0 0-.67-3 25.73 25.73 0 0 0-1.13-2.91 20.81 20.81 0 0 0-1.48-2.75 6 6 0 0 0-2.14-2.27 4.08 4.08 0 0 1 1 1.17c.27.43.52.88.75 1.33.47.91.92 1.84 1.34 2.77.83 1.82 1.65 3.7 2.33 5.66ZM372.6 257.54a5.37 5.37 0 0 1 1.3-.1c.42 0 .76.14 1.3.19l-.28-.28a1.26 1.26 0 0 0 .22.58 1.53 1.53 0 0 0 .39.41 1.91 1.91 0 0 0 1 .37 4.91 4.91 0 0 1-.69-.67 2.32 2.32 0 0 1-.21-.37 1.13 1.13 0 0 1-.1-.34v-.24h-.26a3.72 3.72 0 0 0-1.24 0 2.55 2.55 0 0 0-1.43.45Z" style="fill:#f28f8f"/><path d="M355 131.32c3.59 0 6.66-5 4-9s-10.31-5.84-14.72-6a23.69 23.69 0 0 0-16.13 5.56c-2.12 1.8-3.9 4-6.05 5.73-5.13 4.23-12.19 4-17.61.34-2.38-1.63-4.35-3.86-6.88-5.24s-6-1.69-8.05.39a7 7 0 0 0-1.56 3.14c-1.36 5.34 0 11.85 6.61 16.27-1.68.57-5.08-1.7-6.24-3.65.58 3.65 1.93 8.61 9.15 13.81 9.72 7 19.56 6.32 27.22 3.66 13.39-4.64 14.22-16.41 19.4-20.58a18.7 18.7 0 0 1 10.86-4.43Z" style="fill:#263238"/><path d="M341.83 119.42c-10.13-1-12.59 11.58-8.29 21.24 7.63 17.13 30 13.71 30 13.71l2.31 12.71s3.46-2.87 9.09-7.08c9.76-7.29 9.38-21.79 4.24-25.37 2.56-12.35-21.86-26.39-37.35-15.21Z" style="fill:#37474f"/><path d="M341 126.77c-3.37 1.35-6.88 8.45-8 23.1-.82 10.49 2.48 15.14 5.52 16.83a20 20 0 0 0 8.3 2.07l-.33 2.55v2.1s8.69 16.08 23.19 21.23c3.15-10.41-4.94-20.88-4.94-20.88l2.62-15.83c.55 1.33 4.45 3.73 7.9.55 4-3.75 4.12-9 1.44-11.35s-6.62-1.17-8.54 2.11c-3.44.82-7.16-3.21-5-15.61-3.59-2.69-6.12.69-14.11-1.69-3.54-1.07-3.9-6.6-8.05-5.18Z" style="fill:#ffa8a7"/><path d="M373.73 156.57a1.72 1.72 0 1 1-1.69-1.74 1.71 1.71 0 0 1 1.69 1.74Z" style="fill:#fee600"/><path d="M346.82 168.77c11.68.38 15.39-4.12 17.06-8a10 10 0 0 1-3.92 7.43c-6 4.18-13.47 3.1-13.47 3.1Z" style="fill:#f28f8f"/><path d="M355 146.82a1.93 1.93 0 1 1-1.61-2.2 1.93 1.93 0 0 1 1.61 2.2Z" style="fill:#263238"/><path d="M350.6 158.55c0 1.2-1.08.68-2.49.66s-2.62.45-2.59-.75a2.39 2.39 0 0 1 2.59-2.12 2.35 2.35 0 0 1 2.49 2.21Z" style="fill:#b16668"/><path d="M346.51 159.27c.45 0 1-.07 1.6-.06 1.41 0 2.46.54 2.49-.66a1.86 1.86 0 0 0-.35-1.12 3.48 3.48 0 0 0-1.44 0 3 3 0 0 0-2.3 1.84Z" style="fill:#f28f8f"/><path d="M341 144.32a1.93 1.93 0 1 1-1.6-2.2 1.93 1.93 0 0 1 1.6 2.2ZM340.6 134.65l-3.72 2.85a2.25 2.25 0 0 0 3.23.49 2.44 2.44 0 0 0 .49-3.34ZM355.56 137.5l3.23 3.49a2.29 2.29 0 0 1-3.31-.08 2.47 2.47 0 0 1 .08-3.41Z" style="fill:#263238"/><path d="m347.1 142.51-2.83 11.65-5.4-3.16 8.23-8.49z" style="fill:#f28f8f"/></svg>